<?xml version="1.0" encoding="utf-8"?>
<!-- Generator: Adobe Illustrator 19.0.0, SVG Export Plug-In . SVG Version: 6.00 Build 0)  -->
<svg version="1.1" id="Layer_1" xmlns="http://www.w3.org/2000/svg" xmlns:xlink="http://www.w3.org/1999/xlink" x="0px" y="0px"
	 viewBox="0 0 434.7 464.4" style="enable-background:new 0 0 434.7 464.4;" xml:space="preserve">
<g>
	<g id="emblem">
		<path d="M230.8,129.4c0-29.8,12.9-44.7,20-51.5l-0.8-1.4l-149.2,0V93h7.5V238c0,19.6,0.6,46.6,11.6,71.7
			c10.9,24.7,26.4,43.1,53.3,43.1c27.3,0,55.5-29.2,21.5-75c-25.3-34-69.6-64.8-69.6-135.4c0-29.3,10.6-44.3,15.2-49.5h30.3
			c-3.4,4.7-12.9,19.9-12.9,45.9c0,85,88,112.7,88,175c0,29.8-23.7,61.4-50.3,65.4l-0.4,2.7c7.1,2.7,14.9,4.7,22.2,6
			c10.4-0.4,97.7-24.5,97.7-100.4C315,214.1,230.8,194.5,230.8,129.4 M126.3,216.8c0.2,0,0.9-0.4,1-0.5c13.4,32,47.6,60.2,58.7,86.9
			c8,19,0.7,32.4-12.5,32.4c-30.5,0-47.3-44.8-47.3-95.5V216.8z M242.3,364.6c-0.3-0.3-0.4-0.5-0.6-0.7c11.6-9,25.4-26.2,25.4-50.3
			c0-71.4-89.6-98.4-89.6-177.2c0-23.8,9.7-38.8,13.2-43.4h28.9c-3,5.2-8.7,18.6-8.7,38.3c0,72,83.8,93.3,83.8,159.1
			C294.7,329,262,357.5,242.3,364.6"/>
		<path d="M101.5,76.5c-0.1,0-0.3,0-0.4,0c0.1,0,0.1,0,0.2,0C101.4,76.5,101.4,76.5,101.5,76.5"/>
		<path d="M314.4,76.5c-12.9,0-23.4,2.6-33,9.9c-2.3,1.7-18.8,15.1-18.8,37c0,26.6,17.5,46.4,36.7,65.6c14.8,14.8,22,24.3,25.1,29.4
			l1.9-0.5V93h7.6V76.5H314.4z M308.5,174.9c-0.1,0-0.6,0.3-0.8,0.3c-8-10.6-27.8-29.1-27.8-52.1c0-13.3,9-25.3,18.4-28.6
			c2.8-1,5.6-1.1,8.5-1.1c1.1,0,0.6,0,1.7,0L308.5,174.9z"/>
	</g>
</g>
</svg>
