<?xml version="1.0" encoding="UTF-8" standalone="no"?>
<svg
   xmlns:dc="http://purl.org/dc/elements/1.1/"
   xmlns:cc="http://creativecommons.org/ns#"
   xmlns:rdf="http://www.w3.org/1999/02/22-rdf-syntax-ns#"
   xmlns:svg="http://www.w3.org/2000/svg"
   xmlns="http://www.w3.org/2000/svg"
   xmlns:sodipodi="http://sodipodi.sourceforge.net/DTD/sodipodi-0.dtd"
   xmlns:inkscape="http://www.inkscape.org/namespaces/inkscape"
   width="150mm"
   height="83mm"
   viewBox="0 0 150 83"
   version="1.1"
   id="svg1182"
   inkscape:version="1.0.1 (3bc2e813f5, 2020-09-07)"
   sodipodi:docname="automate.svg"
   inkscape:export-filename="/home/suchakra/Documents/Joern/automate.png"
   inkscape:export-xdpi="169.33"
   inkscape:export-ydpi="169.33">
  <defs
     id="defs1176">
    <filter
       inkscape:collect="always"
       style="color-interpolation-filters:sRGB"
       id="filter3084"
       x="-0.13553753"
       width="1.2710751"
       y="-0.091247804"
       height="1.1824956">
      <feGaussianBlur
         inkscape:collect="always"
         stdDeviation="8.079765"
         id="feGaussianBlur3086" />
    </filter>
    <filter
       inkscape:collect="always"
       style="color-interpolation-filters:sRGB"
       id="filter3664"
       x="-0.032624066"
       width="1.0652481"
       y="-0.081133522"
       height="1.1622671">
      <feGaussianBlur
         inkscape:collect="always"
         stdDeviation="4.2911521"
         id="feGaussianBlur3666" />
    </filter>
    <filter
       inkscape:collect="always"
       style="color-interpolation-filters:sRGB"
       id="filter4233"
       x="-0.045388673"
       width="1.0907773"
       y="-0.058709014"
       height="1.1174181">
      <feGaussianBlur
         inkscape:collect="always"
         stdDeviation="3.5997482"
         id="feGaussianBlur4235" />
    </filter>
  </defs>
  <sodipodi:namedview
     id="base"
     pagecolor="#ffffff"
     bordercolor="#666666"
     borderopacity="1.0"
     inkscape:pageopacity="0.0"
     inkscape:pageshadow="2"
     inkscape:zoom="1.0867335"
     inkscape:cx="165.86293"
     inkscape:cy="193.56858"
     inkscape:document-units="mm"
     inkscape:current-layer="layer1"
     inkscape:document-rotation="0"
     showgrid="false"
     fit-margin-top="0"
     fit-margin-left="0"
     fit-margin-right="0"
     fit-margin-bottom="0"
     inkscape:window-width="2560"
     inkscape:window-height="1377"
     inkscape:window-x="0"
     inkscape:window-y="30"
     inkscape:window-maximized="1" />
  <metadata
     id="metadata1179">
    <rdf:RDF>
      <cc:Work
         rdf:about="">
        <dc:format>image/svg+xml</dc:format>
        <dc:type
           rdf:resource="http://purl.org/dc/dcmitype/StillImage" />
        <dc:title></dc:title>
      </cc:Work>
    </rdf:RDF>
  </metadata>
  <g
     inkscape:label="Layer 1"
     inkscape:groupmode="layer"
     id="layer1"
     transform="translate(-30,-107)">
    <rect
       style="fill:#000000;stroke:none;stroke-width:0.4964;stroke-linejoin:round;stroke-miterlimit:4;stroke-dasharray:none"
       id="rect833"
       width="150"
       height="83"
       x="30"
       y="107" />
    <g
       id="g3752"
       transform="matrix(0.23692044,0,0,0.23692044,-83.453523,77.323935)">
      <g
         id="g3097"
         transform="matrix(0.98229427,0,0,0.98229427,-38.227464,-2.7783314)">
        <g
           id="g2762"
           style="opacity:0.410173;stroke:#57db00;stroke-width:8.88716;stroke-miterlimit:4;stroke-dasharray:none;stroke-opacity:1;filter:url(#filter3084)"
           transform="translate(27.901862,-13.60371)">
          <path
             id="path2758"
             style="fill:none;fill-rule:evenodd;stroke:#57db00;stroke-width:8.88716;stroke-miterlimit:4;stroke-dasharray:none;stroke-opacity:1"
             d="m 858.52201,274.87044 -28.189,27.432 40.392,23.22 c 0.252,17.748 0.396,32.76 0.289,46.152 -0.109,13.248 1.08,26.244 -0.865,33.012 -2.088,6.588 -6.984,6.516 -11.088,6.588 -4.141,-0.108 -10.908,-1.944 -13.355,-6.876 -2.449,-5.04 -1.297,-12.78 -1.404,-22.68 -0.252,-10.116 -0.252,-22.104 0,-36.937 -12.889,-5.976 -23.616,-11.304 -32.725,-16.38 -9.18,-5.076 -16.992,-8.856 -21.636,-13.716 -4.681,-5.112 -6.155,-10.44 -6.228,-15.552 -0.072,-5.112 1.728,-8.928 5.688,-14.508 3.924,-5.652 10.08,-11.664 17.641,-19.008 7.523,-7.524 19.764,-19.764 27,-25.056 7.092,-5.256 10.691,-6.444 15.659,-6.336 5.004,0.072 9.792,3.24 13.932,6.588 3.924,3.168 5.615,6.372 9.936,12.924 4.248,6.588 9.324,15.12 15.373,26.136 11.592,-1.044 20.412,-1.044 26.748,0 6.156,0.972 9.936,2.808 10.799,6.048 0.828,3.204 0.182,10.476 -5.688,12.924 -6.047,2.232 -22.355,1.116 -29.879,1.08 -7.525,0 -11.484,0.432 -15.084,-1.08 -3.674,-1.656 -4.32,-4.464 -7.094,-8.424 -2.95,-4.031 -6.226,-9.215 -10.222,-15.551 z" />
          <path
             id="path2760"
             style="fill:none;fill-rule:evenodd;stroke:#57db00;stroke-width:8.88716;stroke-miterlimit:4;stroke-dasharray:none;stroke-opacity:1"
             d="m 887.76201,198.76044 c 13.492,0 24.443,10.16 24.443,22.68 0,12.52 -10.951,22.68 -24.443,22.68 -13.494,0 -24.445,-10.161 -24.445,-22.68 0,-12.519 10.95,-22.68 24.445,-22.68" />
        </g>
        <g
           id="g2862"
           style="stroke:#338100;stroke-width:5.67353;stroke-miterlimit:4;stroke-dasharray:none;stroke-opacity:1"
           transform="translate(27.901862,-13.60371)">
          <path
             id="path2858"
             style="fill:none;fill-rule:evenodd;stroke:#338100;stroke-width:5.67353;stroke-miterlimit:4;stroke-dasharray:none;stroke-opacity:1"
             d="m 858.52201,274.87044 -28.189,27.432 40.392,23.22 c 0.252,17.748 0.396,32.76 0.289,46.152 -0.109,13.248 1.08,26.244 -0.865,33.012 -2.088,6.588 -6.984,6.516 -11.088,6.588 -4.141,-0.108 -10.908,-1.944 -13.355,-6.876 -2.449,-5.04 -1.297,-12.78 -1.404,-22.68 -0.252,-10.116 -0.252,-22.104 0,-36.937 -12.889,-5.976 -23.616,-11.304 -32.725,-16.38 -9.18,-5.076 -16.992,-8.856 -21.636,-13.716 -4.681,-5.112 -6.155,-10.44 -6.228,-15.552 -0.072,-5.112 1.728,-8.928 5.688,-14.508 3.924,-5.652 10.08,-11.664 17.641,-19.008 7.523,-7.524 19.764,-19.764 27,-25.056 7.092,-5.256 10.691,-6.444 15.659,-6.336 5.004,0.072 9.792,3.24 13.932,6.588 3.924,3.168 5.615,6.372 9.936,12.924 4.248,6.588 9.324,15.12 15.373,26.136 11.592,-1.044 20.412,-1.044 26.748,0 6.156,0.972 9.936,2.808 10.799,6.048 0.828,3.204 0.182,10.476 -5.688,12.924 -6.047,2.232 -22.355,1.116 -29.879,1.08 -7.525,0 -11.484,0.432 -15.084,-1.08 -3.674,-1.656 -4.32,-4.464 -7.094,-8.424 -2.95,-4.031 -6.226,-9.215 -10.222,-15.551 z" />
          <path
             id="path2860"
             style="fill:none;fill-rule:evenodd;stroke:#338100;stroke-width:5.67353;stroke-miterlimit:4;stroke-dasharray:none;stroke-opacity:1"
             d="m 887.76201,198.76044 c 13.492,0 24.443,10.16 24.443,22.68 0,12.52 -10.951,22.68 -24.443,22.68 -13.494,0 -24.445,-10.161 -24.445,-22.68 0,-12.519 10.95,-22.68 24.445,-22.68" />
        </g>
        <g
           id="g2756"
           style="stroke:#55d400;stroke-width:2.75204;stroke-miterlimit:4;stroke-dasharray:none;stroke-opacity:1"
           transform="translate(27.901862,-13.60371)">
          <path
             id="path101"
             style="fill:none;fill-rule:evenodd;stroke:#55d400;stroke-width:2.75204;stroke-miterlimit:4;stroke-dasharray:none;stroke-opacity:1"
             d="m 858.52201,274.87044 -28.189,27.432 40.392,23.22 c 0.252,17.748 0.396,32.76 0.289,46.152 -0.109,13.248 1.08,26.244 -0.865,33.012 -2.088,6.588 -6.984,6.516 -11.088,6.588 -4.141,-0.108 -10.908,-1.944 -13.355,-6.876 -2.449,-5.04 -1.297,-12.78 -1.404,-22.68 -0.252,-10.116 -0.252,-22.104 0,-36.937 -12.889,-5.976 -23.616,-11.304 -32.725,-16.38 -9.18,-5.076 -16.992,-8.856 -21.636,-13.716 -4.681,-5.112 -6.155,-10.44 -6.228,-15.552 -0.072,-5.112 1.728,-8.928 5.688,-14.508 3.924,-5.652 10.08,-11.664 17.641,-19.008 7.523,-7.524 19.764,-19.764 27,-25.056 7.092,-5.256 10.691,-6.444 15.659,-6.336 5.004,0.072 9.792,3.24 13.932,6.588 3.924,3.168 5.615,6.372 9.936,12.924 4.248,6.588 9.324,15.12 15.373,26.136 11.592,-1.044 20.412,-1.044 26.748,0 6.156,0.972 9.936,2.808 10.799,6.048 0.828,3.204 0.182,10.476 -5.688,12.924 -6.047,2.232 -22.355,1.116 -29.879,1.08 -7.525,0 -11.484,0.432 -15.084,-1.08 -3.674,-1.656 -4.32,-4.464 -7.094,-8.424 -2.95,-4.031 -6.226,-9.215 -10.222,-15.551 z" />
          <path
             id="path103"
             style="fill:none;fill-rule:evenodd;stroke:#55d400;stroke-width:2.75204;stroke-miterlimit:4;stroke-dasharray:none;stroke-opacity:1"
             d="m 887.76201,198.76044 c 13.492,0 24.443,10.16 24.443,22.68 0,12.52 -10.951,22.68 -24.443,22.68 -13.494,0 -24.445,-10.161 -24.445,-22.68 0,-12.519 10.95,-22.68 24.445,-22.68" />
        </g>
      </g>
      <g
         id="g3338"
         style="opacity:0.793025;fill:none;stroke:#245500;stroke-width:8.59501;stroke-miterlimit:4;stroke-dasharray:none;stroke-opacity:1;filter:url(#filter3664)"
         transform="translate(597.9783,73.319075)">
        <path
           id="path3334"
           style="fill:none;fill-rule:evenodd;stroke:#245500;stroke-width:8.59501;stroke-miterlimit:4;stroke-dasharray:none;stroke-opacity:1"
           d="m 143.07,232.29 c 37.756,0 68.4,28.434 68.4,63.468 0,35.034 -30.645,63.468 -68.4,63.468 -37.757,0 -68.4,-28.434 -68.4,-63.468 0,-35.034 30.643,-63.468 68.4,-63.468 z m 0,12.276 c 30.463,0 55.188,22.935 55.188,51.192 0,28.257 -24.725,51.191 -55.188,51.191 -30.464,0 -55.188,-22.934 -55.188,-51.191 0,-28.257 24.724,-51.192 55.188,-51.192 z" />
        <path
           id="path3336"
           style="fill:none;fill-rule:evenodd;stroke:#245500;stroke-width:8.59501;stroke-miterlimit:4;stroke-dasharray:none;stroke-opacity:1"
           d="m 321.95,232.29 c 37.756,0 68.4,28.434 68.4,63.468 0,35.034 -30.645,63.468 -68.4,63.468 -37.758,0 -68.4,-28.434 -68.4,-63.468 0,-35.034 30.642,-63.468 68.4,-63.468 z m 0,12.276 c 30.443,0 55.152,22.935 55.152,51.192 0,28.257 -24.709,51.191 -55.152,51.191 -30.445,0 -55.152,-22.934 -55.152,-51.191 0,-28.257 24.707,-51.192 55.152,-51.192 z" />
        <path
           id="path4239"
           style="opacity:0.533913;fill:none;fill-rule:evenodd;stroke:#245500;stroke-width:8.59501;stroke-miterlimit:4;stroke-dasharray:none;stroke-opacity:1"
           d="m 63.434384,232.29 c 37.756016,0 68.400016,28.434 68.400016,63.468 0,35.034 -30.645,63.468 -68.400016,63.468 -37.757015,0 -68.400017,-28.434 -68.400017,-63.468 0,-35.034 30.643002,-63.468 68.400017,-63.468 z m 0,12.276 c 30.463013,0 55.188016,22.935 55.188016,51.192 0,28.257 -24.725003,51.191 -55.188016,51.191 -30.464012,0 -55.188017,-22.934 -55.188017,-51.191 0,-28.257 24.724005,-51.192 55.188017,-51.192 z" />
        <path
           id="path4241"
           style="opacity:0.116754;fill:none;fill-rule:evenodd;stroke:#245500;stroke-width:8.59501;stroke-miterlimit:4;stroke-dasharray:none;stroke-opacity:1"
           d="m 19.996766,232.29 c 37.756016,0 68.400029,28.434 68.400029,63.468 0,35.034 -30.645013,63.468 -68.400029,63.468 -37.757015,0 -68.400017,-28.434 -68.400017,-63.468 0,-35.034 30.643002,-63.468 68.400017,-63.468 z m 0,12.276 c 30.463013,0 55.188023,22.935 55.188023,51.192 0,28.257 -24.72501,51.191 -55.188023,51.191 -30.464012,0 -55.188017,-22.934 -55.188017,-51.191 0,-28.257 24.724005,-51.192 55.188017,-51.192 z" />
        <path
           id="path4245"
           style="opacity:0.166229;fill:none;fill-rule:evenodd;stroke:#245500;stroke-width:8.59501;stroke-miterlimit:4;stroke-dasharray:none;stroke-opacity:1"
           d="m 19.996766,232.29 c 37.756016,0 68.400028,28.434 68.400028,63.468 0,35.034 -30.645012,63.468 -68.400028,63.468 -37.757015,0 -68.400017,-28.434 -68.400017,-63.468 0,-35.034 30.643002,-63.468 68.400017,-63.468 z m 0,12.276 c 30.463013,0 55.188023,22.935 55.188023,51.192 0,28.257 -24.72501,51.191 -55.188023,51.191 -30.464012,0 -55.188017,-22.934 -55.188017,-51.191 0,-28.257 24.724005,-51.192 55.188017,-51.192 z" />
      </g>
      <g
         id="g3332"
         style="fill:none;stroke:#214f00;stroke-width:5.67353;stroke-miterlimit:4;stroke-dasharray:none;stroke-opacity:1"
         transform="translate(597.9783,73.319075)">
        <path
           id="path3328"
           style="fill:none;fill-rule:evenodd;stroke:#214f00;stroke-width:5.67353;stroke-miterlimit:4;stroke-dasharray:none;stroke-opacity:1"
           d="m 143.07,232.29 c 37.756,0 68.4,28.434 68.4,63.468 0,35.034 -30.645,63.468 -68.4,63.468 -37.757,0 -68.4,-28.434 -68.4,-63.468 0,-35.034 30.643,-63.468 68.4,-63.468 z m 0,12.276 c 30.463,0 55.188,22.935 55.188,51.192 0,28.257 -24.725,51.191 -55.188,51.191 -30.464,0 -55.188,-22.934 -55.188,-51.191 0,-28.257 24.724,-51.192 55.188,-51.192 z" />
        <path
           id="path3330"
           style="fill:none;fill-rule:evenodd;stroke:#214f00;stroke-width:5.67353;stroke-miterlimit:4;stroke-dasharray:none;stroke-opacity:1"
           d="m 321.95,232.29 c 37.756,0 68.4,28.434 68.4,63.468 0,35.034 -30.645,63.468 -68.4,63.468 -37.758,0 -68.4,-28.434 -68.4,-63.468 0,-35.034 30.642,-63.468 68.4,-63.468 z m 0,12.276 c 30.443,0 55.152,22.935 55.152,51.192 0,28.257 -24.709,51.191 -55.152,51.191 -30.445,0 -55.152,-22.934 -55.152,-51.191 0,-28.257 24.707,-51.192 55.152,-51.192 z" />
      </g>
      <g
         id="g3326"
         style="fill:none;stroke:#55d400;stroke-width:3.04419;stroke-miterlimit:4;stroke-dasharray:none;stroke-opacity:1"
         transform="translate(597.9783,73.319075)">
        <path
           id="path105"
           style="fill:none;fill-rule:evenodd;stroke:#55d400;stroke-width:3.04419;stroke-miterlimit:4;stroke-dasharray:none;stroke-opacity:1"
           d="m 143.07,232.29 c 37.756,0 68.4,28.434 68.4,63.468 0,35.034 -30.645,63.468 -68.4,63.468 -37.757,0 -68.4,-28.434 -68.4,-63.468 0,-35.034 30.643,-63.468 68.4,-63.468 z m 0,12.276 c 30.463,0 55.188,22.935 55.188,51.192 0,28.257 -24.725,51.191 -55.188,51.191 -30.464,0 -55.188,-22.934 -55.188,-51.191 0,-28.257 24.724,-51.192 55.188,-51.192 z" />
        <path
           id="path107"
           style="fill:none;fill-rule:evenodd;stroke:#55d400;stroke-width:3.04419;stroke-miterlimit:4;stroke-dasharray:none;stroke-opacity:1"
           d="m 321.95,232.29 c 37.756,0 68.4,28.434 68.4,63.468 0,35.034 -30.645,63.468 -68.4,63.468 -37.758,0 -68.4,-28.434 -68.4,-63.468 0,-35.034 30.642,-63.468 68.4,-63.468 z m 0,12.276 c 30.443,0 55.152,22.935 55.152,51.192 0,28.257 -24.709,51.191 -55.152,51.191 -30.445,0 -55.152,-22.934 -55.152,-51.191 0,-28.257 24.707,-51.192 55.152,-51.192 z" />
        <path
           id="path4237"
           style="opacity:0.224729;fill:none;fill-rule:evenodd;stroke:#55d400;stroke-width:3.04419;stroke-miterlimit:4;stroke-dasharray:none;stroke-opacity:1"
           d="m 63.434384,232.29 c 37.756016,0 68.400016,28.434 68.400016,63.468 0,35.034 -30.645,63.468 -68.400016,63.468 -37.757015,0 -68.400017,-28.434 -68.400017,-63.468 0,-35.034 30.643002,-63.468 68.400017,-63.468 z m 0,12.276 c 30.463013,0 55.188016,22.935 55.188016,51.192 0,28.257 -24.725003,51.191 -55.188016,51.191 -30.464012,0 -55.188017,-22.934 -55.188017,-51.191 0,-28.257 24.724005,-51.192 55.188017,-51.192 z" />
        <path
           id="path4243"
           style="opacity:0.116754;fill:none;fill-rule:evenodd;stroke:#55d400;stroke-width:3.04419;stroke-miterlimit:4;stroke-dasharray:none;stroke-opacity:1"
           d="m 19.996766,232.29 c 37.756016,0 68.400029,28.434 68.400029,63.468 0,35.034 -30.645013,63.468 -68.400029,63.468 -37.757015,0 -68.400017,-28.434 -68.400017,-63.468 0,-35.034 30.643002,-63.468 68.400017,-63.468 z m 0,12.276 c 30.463013,0 55.188023,22.935 55.188023,51.192 0,28.257 -24.72501,51.191 -55.188023,51.191 -30.464012,0 -55.188017,-22.934 -55.188017,-51.191 0,-28.257 24.724005,-51.192 55.188017,-51.192 z" />
      </g>
      <g
         id="g5761"
         transform="rotate(-6.3209314,-92.780127,-4398.8497)">
        <text
           xml:space="preserve"
           style="font-size:36.5543px;line-height:1.25;font-family:'Noto Sans';-inkscape-font-specification:'Noto Sans';letter-spacing:0px;word-spacing:0px;opacity:0.539731;stroke-width:0.913858"
           x="-95.566483"
           y="396.93063"
           id="text3855"
           transform="rotate(-35.720916)"><tspan
             sodipodi:role="line"
             id="tspan3853"
             x="-95.566483"
             y="396.93063"
             style="fill:#55d400;fill-opacity:1;stroke-width:0.913858">⠁⠥⠞⠕⠍⠁⠞⠑</tspan></text>
        <text
           xml:space="preserve"
           style="font-size:36.5543px;line-height:1.25;font-family:'Noto Sans';-inkscape-font-specification:'Noto Sans';letter-spacing:0px;word-spacing:0px;opacity:0.869201;stroke-width:0.913858;filter:url(#filter4233)"
           x="345.20673"
           y="640.65973"
           id="text3883"
           transform="rotate(-35.720916,-158.92597,806.29681)"><tspan
             sodipodi:role="line"
             id="tspan3881"
             x="345.20673"
             y="640.65973"
             style="fill:#55d400;fill-opacity:1;stroke-width:0.913858">⠁⠥⠞⠕⠍⠁⠞⠑</tspan></text>
      </g>
    </g>
  </g>
</svg>
